# Blender v2.74 (sub 0) OBJ File: 'numbers.blend'
# www.blender.org
mtllib numbers_7.mtl
o Cube
v -0.711548 -0.145820 0.044130
v 0.947749 -0.145820 0.303632
v 0.935537 -0.145820 0.338742
v 0.895848 -0.145820 0.372325
v 0.834788 -0.145820 0.392169
v 1.001176 -0.145820 -0.551203
v 0.120390 -0.145820 -0.279487
v 1.053077 -0.145820 0.016652
v 0.947749 -0.145820 -0.277961
v 0.743199 -0.145820 0.429568
v 0.503540 -0.145820 0.403618
v 0.534069 -0.245820 0.376141
v 0.442480 -0.245820 0.420791
v 0.801969 -0.245820 0.459716
v 0.845474 -0.245820 -0.109284
v 1.156878 -0.245820 -0.077227
v -0.242152 -0.245820 -0.207742
v 1.079027 -0.245820 -0.615316
v 0.671454 -0.245820 0.357823
v 0.763043 -0.245820 0.328056
v 0.822576 -0.245820 0.277682
v 0.840894 -0.245820 0.225018
v -1.490059 -0.245820 0.277683
v -0.322293 -0.245820 -0.033722
v -0.711548 -0.345820 0.044130
v 0.947749 -0.345820 0.303632
v 0.935537 -0.345820 0.338742
v 0.895848 -0.345820 0.372325
v 0.834788 -0.345820 0.392169
v 1.001176 -0.345820 -0.551203
v 0.120390 -0.345820 -0.279487
v 1.053077 -0.345820 0.016652
v 0.947749 -0.345820 -0.277961
v 0.743199 -0.345820 0.429568
v 0.503540 -0.345820 0.403618
v 0.526437 -0.170820 0.383010
v 0.457745 -0.170820 0.416498
v 0.465377 -0.245820 0.390738
v 0.712287 -0.170820 0.366410
v 0.841276 -0.145820 0.412968
v 0.578719 -0.145820 0.415257
v 0.614210 -0.245820 0.368127
v 0.796244 -0.170820 0.339124
v 0.902336 -0.145820 0.392932
v 0.717248 -0.245820 0.344657
v 0.850816 -0.170820 0.292947
v 0.950420 -0.145820 0.370416
v 0.800824 -0.245820 0.306304
v 0.867608 -0.170820 0.244672
v 0.970265 -0.145820 0.337215
v 0.834025 -0.245820 0.248488
v 0.871042 -0.170820 -0.151453
v 0.999650 -0.145820 -0.168054
v 1.001939 -0.145820 0.246389
v 0.844329 -0.245820 0.131139
v -0.419607 -0.170820 -0.014259
v -0.308936 -0.145820 -0.114626
v 0.743199 -0.145820 -0.467246
v 0.986674 -0.145820 -0.466864
v 0.553532 -0.245820 -0.247240
v -1.295432 -0.170820 0.219295
v -1.198118 -0.245820 0.238758
v -0.151516 -0.170820 -0.225678
v -1.178082 -0.245820 0.117401
v 1.059564 -0.170820 -0.599288
v 0.712096 -0.245820 -0.513422
v 1.130928 -0.170820 -0.053758
v 1.135126 -0.245820 -0.480794
v 0.787276 -0.170820 0.452179
v 1.070441 -0.245820 0.326053
v 0.532352 -0.245820 0.449413
v 0.787276 -0.320820 0.452179
v 0.578719 -0.345820 0.415257
v 0.457745 -0.320820 0.416498
v 1.130928 -0.320820 -0.053758
v 1.001939 -0.345820 0.246389
v 0.970265 -0.345820 0.337215
v 0.950420 -0.345820 0.370416
v 0.902336 -0.345820 0.392932
v 0.841276 -0.345820 0.412968
v 1.059564 -0.320820 -0.599288
v 0.986674 -0.345820 -0.466864
v 0.999650 -0.345820 -0.168054
v -0.151516 -0.320820 -0.225678
v 0.743199 -0.345820 -0.467246
v -1.295432 -0.320820 0.219295
v -0.308936 -0.345820 -0.114626
v -0.419607 -0.320820 -0.014259
v 0.871042 -0.320820 -0.151453
v 0.867608 -0.320820 0.244672
v 0.850816 -0.320820 0.292947
v 0.796244 -0.320820 0.339123
v 0.712287 -0.320820 0.366410
v 0.526437 -0.320820 0.383010
v 0.479794 -0.190264 0.395604
v 0.642450 -0.161820 0.380659
v 0.763520 -0.170820 0.356726
v 0.838223 -0.170820 0.322332
v 0.868085 -0.170820 0.270670
v 0.886323 -0.161820 0.123873
v 0.640033 -0.156931 -0.340356
v -1.014303 -0.190264 0.165232
v -0.960796 -0.170820 0.059395
v 0.719872 -0.170820 -0.501878
v 1.101314 -0.161820 -0.468925
v 1.089200 -0.152070 0.408382
v 0.543944 -0.170820 0.440874
v 0.543944 -0.320820 0.440874
v 1.089200 -0.339570 0.408382
v 1.101314 -0.329820 -0.468925
v 0.719872 -0.320820 -0.501878
v -0.960796 -0.320820 0.059395
v -1.014303 -0.301375 0.165232
v 0.640033 -0.334708 -0.340356
v 0.886323 -0.329820 0.123873
v 0.868085 -0.320820 0.270670
v 0.838223 -0.320820 0.322332
v 0.763520 -0.320820 0.356726
v 0.642450 -0.329820 0.380659
v 0.479794 -0.301375 0.395604
vt 0.149804 0.668202
vt 0.206873 0.524568
vt 0.123465 0.834639
vt 0.065848 0.945938
vt 0.037862 0.945938
vt 0.177790 0.529333
vt 0.254544 0.216880
vt 0.056520 0.076241
vt 0.084780 0.114362
vt 0.076343 0.116813
vt 0.044448 0.068209
vt 0.048460 0.032471
vt 0.077097 0.056909
vt 0.118527 0.113137
vt 0.043899 0.080598
vt 0.065848 0.120897
vt 0.055559 0.128657
vt 0.032513 0.075288
vt 0.047740 0.142136
vt 0.041772 0.158473
vt 0.024419 0.092443
vt 0.031827 0.094757
vt 0.037040 0.174811
vt 0.033336 0.195233
vt 0.017217 0.114226
vt 0.024693 0.116540
vt 0.363811 0.057181
vt 0.386858 0.029407
vt 0.350230 0.160311
vt 0.333631 0.149215
vt 0.333494 0.062355
vt 0.338501 0.009394
vt 0.266136 0.371405
vt 0.240346 0.500743
vt 0.193429 0.001634
vt 0.226079 0.057726
vt 0.159682 0.038665
vt 0.265588 0.076241
vt 0.204952 0.112728
vt 0.011249 0.149215
vt 0.016393 0.207894
vt 0.004115 0.224436
vt 0.000411 0.128249
vt 0.030455 0.223823
vt 0.020577 0.234715
vt 0.027985 0.256498
vt 0.014404 0.256498
vt 0.845611 0.967503
vt 0.845611 0.938924
vt 0.881559 0.938924
vt 0.917506 0.938924
vt 0.917506 0.967503
vt 0.881559 0.967503
vt 0.917506 1.000000
vt 0.881559 1.000000
vt 0.845611 1.000000
vt 0.986523 0.933747
vt 0.986523 0.969422
vt 0.973047 0.969422
vt 0.973047 0.933747
vt 0.973047 0.898071
vt 0.986523 0.898071
vt 1.000000 0.898071
vt 1.000000 0.933747
vt 1.000000 0.969422
vt 0.989401 0.771511
vt 0.989401 0.898071
vt 0.953454 0.898071
vt 0.917506 0.898071
vt 0.917506 0.771511
vt 0.953454 0.771511
vt 0.917506 0.644950
vt 0.953454 0.644950
vt 0.989401 0.644950
vt 0.953454 0.533899
vt 0.989401 0.533899
vt 0.917506 0.533899
vt 0.917506 0.448737
vt 0.953454 0.448737
vt 0.989401 0.448737
vt 0.917506 0.191972
vt 0.917506 0.000000
vt 0.953454 0.000000
vt 0.989401 0.000000
vt 0.989401 0.191972
vt 0.953454 0.191972
vt 0.989401 0.383944
vt 0.953454 0.383944
vt 0.917506 0.383944
vt 0.773716 0.516588
vt 0.773716 0.161149
vt 0.809664 0.161149
vt 0.845611 0.161149
vt 0.845611 0.516588
vt 0.809664 0.516588
vt 0.845611 0.981974
vt 0.809664 0.981974
vt 0.773716 0.981974
vt 0.773716 0.025601
vt 0.773716 0.000000
vt 0.809664 0.000000
vt 0.845611 0.000000
vt 0.845611 0.025601
vt 0.845611 0.918181
vt 0.845611 0.901232
vt 0.881559 0.901232
vt 0.917506 0.901232
vt 0.917506 0.918181
vt 0.881559 0.918181
vt 0.845611 0.884035
vt 0.845611 0.866714
vt 0.881559 0.866714
vt 0.917506 0.866714
vt 0.917506 0.884035
vt 0.881559 0.884035
vt 0.953454 0.395899
vt 0.989401 0.395899
vt 0.989401 0.406740
vt 0.953454 0.406740
vt 0.917506 0.406740
vt 0.917506 0.395899
vt 0.953454 0.415352
vt 0.989401 0.415352
vt 0.917506 0.415352
vt 0.945276 0.969422
vt 0.917506 0.969422
vt 0.917506 0.933747
vt 0.945276 0.898071
vt 0.881559 0.433357
vt 0.845611 0.433357
vt 0.881559 0.000000
vt 0.917506 0.433357
vt 0.536662 0.277737
vt 0.452706 0.000000
vt 0.510323 0.111299
vt 0.593731 0.421370
vt 0.641402 0.729059
vt 0.564648 0.416605
vt 0.424720 0.000000
vt 0.443378 0.869697
vt 0.431306 0.877729
vt 0.463201 0.829125
vt 0.471638 0.831576
vt 0.505385 0.832801
vt 0.463955 0.889029
vt 0.435318 0.913468
vt 0.430757 0.865340
vt 0.419371 0.870650
vt 0.442417 0.817281
vt 0.452706 0.825041
vt 0.411277 0.853495
vt 0.428630 0.787465
vt 0.434598 0.803802
vt 0.418685 0.851181
vt 0.404075 0.831712
vt 0.420194 0.750706
vt 0.423898 0.771127
vt 0.411551 0.829398
vt 0.750669 0.888757
vt 0.720489 0.796723
vt 0.737088 0.785627
vt 0.773716 0.916531
vt 0.725359 0.936544
vt 0.720352 0.883584
vt 0.652994 0.574534
vt 0.627204 0.445195
vt 0.612937 0.888212
vt 0.580287 0.944304
vt 0.546540 0.907273
vt 0.652446 0.869697
vt 0.591810 0.833210
vt 0.398107 0.796723
vt 0.403251 0.738044
vt 0.387270 0.817689
vt 0.390973 0.721502
vt 0.417313 0.722115
vt 0.407436 0.711224
vt 0.401262 0.689440
vt 0.414843 0.689440
vt 0.809664 0.025601
vt 0.945276 0.933747
vn 0.055900 0.959900 0.274700
vn -0.026200 0.998800 -0.040500
vn -0.257700 0.691400 -0.674900
vn -0.263400 0.957900 0.113700
vn 0.238300 0.489500 0.838700
vn 0.247500 0.584600 0.772600
vn -0.047100 0.947200 0.317200
vn -0.221100 0.973400 0.059700
vn -0.660800 0.749100 -0.046100
vn -0.558500 0.812200 -0.168300
vn -0.007000 0.999900 -0.005800
vn 0.679900 0.358700 0.639600
vn -0.002400 0.999600 -0.026600
vn -0.566700 0.823800 -0.013800
vn -0.122300 0.988100 -0.093100
vn -0.578600 0.740800 -0.341100
vn -0.394400 0.807900 -0.437800
vn -0.014000 0.999800 0.010000
vn -0.306400 0.726800 -0.614700
vn -0.221100 0.682900 -0.696200
vn -0.024800 0.999500 0.016400
vn -0.112300 0.980800 -0.159500
vn -0.115500 0.604600 -0.788100
vn -0.056900 0.654100 -0.754200
vn -0.010800 0.960800 0.277100
vn -0.076400 0.963000 -0.258200
vn 0.009800 0.950000 -0.311900
vn 0.323900 0.601000 -0.730600
vn -0.242300 0.554400 -0.796200
vn -0.079900 0.972200 -0.219900
vn 0.064600 0.997700 0.017200
vn 0.626100 0.771400 -0.113400
vn -0.087000 0.956000 -0.280100
vn -0.265700 0.574000 -0.774500
vn 0.713400 0.699500 0.042500
vn 0.009500 0.999900 0.008100
vn 0.158200 0.987100 0.024400
vn -0.018600 0.999200 0.034100
vn -0.420400 0.874800 0.240500
vn -0.018700 0.947100 0.320300
vn -0.056800 0.995000 0.081600
vn -0.136300 0.461400 0.876600
vn 0.054800 0.448700 0.892000
vn -0.137200 0.396100 -0.907900
vn -0.304600 0.932500 -0.194100
vn -0.456000 0.205600 -0.865900
vn -0.824300 0.550300 0.132500
vn -0.106100 0.000000 -0.994400
vn -0.056900 -0.654100 -0.754200
vn -0.137200 -0.396100 -0.907900
vn -0.166700 0.000000 -0.986000
vn -0.456000 -0.205600 -0.865900
vn -0.564000 0.000000 -0.825800
vn -0.963100 0.000000 0.269000
vn -0.824300 -0.550300 0.132500
vn -0.136300 -0.461400 0.876600
vn -0.176700 0.000000 0.984300
vn 0.054800 -0.448700 0.892000
vn 0.091600 0.000000 0.995800
vn 0.679900 -0.358700 0.639600
vn 0.910600 0.000000 0.413100
vn -0.922400 0.000000 0.386200
vn 0.039800 0.000000 0.999200
vn -0.047100 -0.947200 0.317200
vn -0.420400 -0.874800 0.240500
vn -0.566700 -0.823800 -0.013800
vn -0.999800 0.000000 -0.021500
vn 0.713400 -0.699500 0.042500
vn 0.998800 0.000000 0.048500
vn 0.626100 -0.771400 -0.113400
vn 0.977900 0.000000 -0.209100
vn -0.288900 0.000000 -0.957300
vn -0.242300 -0.554400 -0.796200
vn -0.265700 -0.574000 -0.774500
vn -0.326100 0.000000 -0.945300
vn -0.257700 -0.691400 -0.674900
vn -0.423700 0.000000 -0.905800
vn 0.323900 -0.601000 -0.730600
vn -0.281100 0.000000 -0.959700
vn -0.221100 -0.682900 -0.696200
vn -0.115500 -0.604600 -0.788100
vn -0.211600 0.000000 -0.977300
vn -0.618600 0.000000 -0.785700
vn -0.394400 -0.807900 -0.437800
vn -0.306400 -0.726800 -0.614700
vn -0.425100 0.000000 -0.905100
vn -0.871100 0.000000 -0.491000
vn -0.956600 0.000000 -0.291400
vn -0.558500 -0.812200 -0.168300
vn -0.578600 -0.740800 -0.341100
vn -0.984500 0.000000 -0.175400
vn -0.660800 -0.749100 -0.046100
vn -0.263400 -0.957900 0.113700
vn 0.238300 -0.489500 0.838700
vn 0.210300 0.000000 0.977600
vn 0.289800 0.000000 0.957100
vn 0.247500 -0.584600 0.772600
vn 0.055900 -0.959900 0.274700
vn -0.026200 -0.998800 -0.040500
vn -0.221100 -0.973400 0.059700
vn -0.007000 -0.999900 -0.005800
vn -0.002400 -0.999600 -0.026600
vn -0.122300 -0.988100 -0.093100
vn -0.014000 -0.999800 0.010000
vn -0.024800 -0.999500 0.016400
vn -0.112300 -0.980800 -0.159500
vn -0.010800 -0.960800 0.277100
vn -0.076400 -0.963000 -0.258200
vn 0.009800 -0.950000 -0.311900
vn -0.079900 -0.972200 -0.219900
vn 0.064600 -0.997700 0.017200
vn -0.087000 -0.956000 -0.280100
vn 0.009500 -0.999900 0.008100
vn 0.158200 -0.987100 0.024400
vn -0.018600 -0.999200 0.034100
vn -0.018700 -0.947100 0.320300
vn -0.056800 -0.995000 0.081600
vn -0.304600 -0.932500 -0.194100
vn 0.479300 0.000000 -0.877600
vn -0.955400 0.000000 0.295200
usemtl Material
s 1
f 1/1/1 57/2/2 103/3/3
f 1/1/1 61/4/4 102/5/5
f 56/6/6 101/7/7 57/2/2
f 2/8/8 49/9/9 99/10/10
f 50/11/11 106/12/12 54/13/13
f 54/13/13 100/14/14 49/9/9
f 3/15/15 46/16/16 98/17/17
f 47/18/18 106/12/12 50/11/11
f 3/15/15 50/11/11 99/10/10
f 43/19/19 97/20/20 44/21/21
f 44/21/21 106/12/12 47/18/18
f 4/22/22 47/18/18 98/17/17
f 39/23/23 96/24/24 40/25/25
f 40/25/25 106/12/12 44/21/21
f 5/26/26 44/21/21 97/20/20
f 6/27/27 65/28/28 104/29/29
f 58/30/30 101/7/7 59/31/31
f 6/27/27 59/31/31 105/32/32
f 7/33/33 58/30/30 104/29/29
f 63/34/34 103/3/3 57/2/2
f 7/33/33 57/2/2 101/7/7
f 67/35/35 105/32/32 53/36/36
f 8/37/37 53/36/36 100/14/14
f 54/13/13 106/12/12 67/35/35
f 9/38/38 53/36/36 105/32/32
f 9/38/38 59/31/31 101/7/7
f 52/39/39 100/14/14 53/36/36
f 10/40/40 40/25/25 96/24/24
f 10/40/40 41/41/41 107/42/42
f 69/43/43 106/12/12 40/25/25
f 41/41/41 96/24/24 36/44/44
f 11/45/45 36/44/44 95/46/46
f 11/45/45 37/47/47 107/42/42
f 36/48/44 96/49/24 42/50/48
f 42/50/48 119/51/49 94/52/50
f 12/53/51 94/52/50 120/54/52
f 12/53/51 38/55/53 95/56/46
f 13/57/54 37/58/47 95/59/46
f 13/57/54 38/60/53 120/61/52
f 74/62/55 108/63/56 71/64/57
f 71/64/57 107/65/42 37/58/47
f 69/66/43 107/67/42 71/68/57
f 71/68/57 108/69/56 72/70/58
f 14/71/59 72/70/58 109/72/60
f 14/71/59 70/73/61 106/74/12
f 15/75/62 52/76/39 101/74/7
f 15/75/62 60/73/63 114/72/64
f 15/75/62 89/77/65 115/78/66
f 15/75/62 55/79/67 100/80/14
f 67/81/35 106/82/12 70/83/61
f 70/83/61 109/84/60 75/85/68
f 16/86/69 75/85/68 110/87/70
f 16/86/69 68/88/71 105/89/32
f 63/90/34 104/91/29 66/92/72
f 66/92/72 111/93/73 84/94/74
f 17/95/75 84/94/74 112/96/76
f 17/95/75 64/97/77 103/98/3
f 65/99/28 105/100/32 68/101/71
f 68/101/71 110/102/70 81/103/78
f 81/103/78 111/93/73 66/92/72
f 66/92/72 104/91/29 65/99/28
f 39/104/23 97/105/20 45/106/79
f 45/106/79 118/107/80 93/108/81
f 19/109/82 93/108/81 119/51/49
f 19/109/82 42/50/48 96/49/24
f 43/110/19 98/111/17 48/112/83
f 48/112/83 117/113/84 92/114/85
f 20/115/86 92/114/85 118/107/80
f 20/115/86 45/106/79 97/105/20
f 21/116/87 46/117/16 99/118/10
f 21/116/87 51/119/88 116/120/89
f 21/116/87 91/121/90 117/89/84
f 21/116/87 48/88/83 98/87/17
f 22/122/91 49/123/9 100/80/14
f 22/122/91 55/79/67 115/78/66
f 90/124/92 116/120/89 51/119/88
f 51/119/88 99/118/10 49/123/9
f 61/125/4 103/126/3 64/127/77
f 64/127/77 112/69/76 86/128/93
f 86/128/93 113/61/94 62/60/95
f 62/60/95 102/59/5 61/125/4
f 24/129/96 56/130/6 102/102/5
f 24/129/96 62/131/95 113/82/94
f 24/129/96 88/132/97 114/113/64
f 24/129/96 60/112/63 101/111/7
f 25/133/98 86/134/93 112/135/76
f 87/136/99 114/137/64 88/138/97
f 25/133/98 88/138/97 113/139/94
f 26/140/100 77/141/101 116/142/89
f 90/143/92 115/144/66 76/145/102
f 76/145/102 109/146/60 77/141/101
f 27/147/103 78/148/104 117/149/84
f 27/147/103 91/150/90 116/142/89
f 77/141/101 109/146/60 78/148/104
f 79/151/105 118/152/80 92/153/85
f 28/154/106 92/153/85 117/149/84
f 78/148/104 109/146/60 79/151/105
f 80/155/107 119/156/49 93/157/81
f 29/158/108 93/157/81 118/152/80
f 79/151/105 109/146/60 80/155/107
f 30/159/109 85/160/110 111/161/73
f 30/159/109 81/162/78 110/163/70
f 82/164/111 114/137/64 85/160/110
f 31/165/112 84/166/74 111/161/73
f 31/165/112 85/160/110 114/137/64
f 87/136/99 112/135/76 84/166/74
f 83/167/113 110/163/70 75/168/68
f 75/168/68 109/146/60 76/145/102
f 32/169/114 76/145/102 115/144/66
f 33/170/115 82/164/111 110/163/70
f 83/167/113 115/144/66 89/171/65
f 33/170/115 89/171/65 114/137/64
f 34/172/116 73/173/117 119/156/49
f 80/155/107 109/146/60 72/174/58
f 34/172/116 72/174/58 108/175/56
f 94/176/50 119/156/49 73/173/117
f 35/177/118 73/173/117 108/175/56
f 35/177/118 74/178/55 120/179/52
f 61/4/4 1/1/1 103/3/3
f 56/6/6 1/1/1 102/5/5
f 1/1/1 56/6/6 57/2/2
f 50/11/11 2/8/8 99/10/10
f 2/8/8 50/11/11 54/13/13
f 2/8/8 54/13/13 49/9/9
f 47/18/18 3/15/15 98/17/17
f 3/15/15 47/18/18 50/11/11
f 46/16/16 3/15/15 99/10/10
f 4/22/22 43/19/19 44/21/21
f 4/22/22 44/21/21 47/18/18
f 43/19/19 4/22/22 98/17/17
f 5/26/26 39/23/23 40/25/25
f 5/26/26 40/25/25 44/21/21
f 39/23/23 5/26/26 97/20/20
f 58/30/30 6/27/27 104/29/29
f 6/27/27 58/30/30 59/31/31
f 65/28/28 6/27/27 105/32/32
f 63/34/34 7/33/33 104/29/29
f 7/33/33 63/34/34 57/2/2
f 58/30/30 7/33/33 101/7/7
f 8/37/37 67/35/35 53/36/36
f 54/13/13 8/37/37 100/14/14
f 8/37/37 54/13/13 67/35/35
f 59/31/31 9/38/38 105/32/32
f 52/39/39 9/38/38 101/7/7
f 9/38/38 52/39/39 53/36/36
f 41/41/41 10/40/40 96/24/24
f 69/43/43 10/40/40 107/42/42
f 10/40/40 69/43/43 40/25/25
f 11/45/45 41/41/41 36/44/44
f 37/47/47 11/45/45 95/46/46
f 41/41/41 11/45/45 107/42/42
f 12/53/51 36/48/44 42/50/48
f 12/53/51 42/50/48 94/52/50
f 38/55/53 12/53/51 120/54/52
f 36/48/44 12/53/51 95/56/46
f 38/60/53 13/57/54 95/59/46
f 74/62/55 13/57/54 120/61/52
f 13/57/54 74/62/55 71/64/57
f 13/57/54 71/64/57 37/58/47
f 14/71/59 69/66/43 71/68/57
f 14/71/59 71/68/57 72/70/58
f 70/73/61 14/71/59 109/72/60
f 69/66/43 14/71/59 106/74/12
f 60/73/63 15/75/62 101/74/7
f 89/77/65 15/75/62 114/72/64
f 55/79/67 15/75/62 115/78/66
f 52/76/39 15/75/62 100/80/14
f 16/86/69 67/81/35 70/83/61
f 16/86/69 70/83/61 75/85/68
f 68/88/71 16/86/69 110/87/70
f 67/81/35 16/86/69 105/89/32
f 17/95/75 63/90/34 66/92/72
f 17/95/75 66/92/72 84/94/74
f 64/97/77 17/95/75 112/96/76
f 63/90/34 17/95/75 103/98/3
f 18/180/119 65/99/28 68/101/71
f 18/180/119 68/101/71 81/103/78
f 18/180/119 81/103/78 66/92/72
f 18/180/119 66/92/72 65/99/28
f 19/109/82 39/104/23 45/106/79
f 19/109/82 45/106/79 93/108/81
f 42/50/48 19/109/82 119/51/49
f 39/104/23 19/109/82 96/49/24
f 20/115/86 43/110/19 48/112/83
f 20/115/86 48/112/83 92/114/85
f 45/106/79 20/115/86 118/107/80
f 43/110/19 20/115/86 97/105/20
f 51/119/88 21/116/87 99/118/10
f 91/121/90 21/116/87 116/120/89
f 48/88/83 21/116/87 117/89/84
f 46/117/16 21/116/87 98/87/17
f 55/79/67 22/122/91 100/80/14
f 90/124/92 22/122/91 115/78/66
f 22/122/91 90/124/92 51/119/88
f 22/122/91 51/119/88 49/123/9
f 23/181/120 61/125/4 64/127/77
f 23/181/120 64/127/77 86/128/93
f 23/181/120 86/128/93 62/60/95
f 23/181/120 62/60/95 61/125/4
f 62/131/95 24/129/96 102/102/5
f 88/132/97 24/129/96 113/82/94
f 60/112/63 24/129/96 114/113/64
f 56/130/6 24/129/96 101/111/7
f 87/136/99 25/133/98 112/135/76
f 25/133/98 87/136/99 88/138/97
f 86/134/93 25/133/98 113/139/94
f 90/143/92 26/140/100 116/142/89
f 26/140/100 90/143/92 76/145/102
f 26/140/100 76/145/102 77/141/101
f 91/150/90 27/147/103 117/149/84
f 77/141/101 27/147/103 116/142/89
f 27/147/103 77/141/101 78/148/104
f 28/154/106 79/151/105 92/153/85
f 78/148/104 28/154/106 117/149/84
f 28/154/106 78/148/104 79/151/105
f 29/158/108 80/155/107 93/157/81
f 79/151/105 29/158/108 118/152/80
f 29/158/108 79/151/105 80/155/107
f 81/162/78 30/159/109 111/161/73
f 82/164/111 30/159/109 110/163/70
f 30/159/109 82/164/111 85/160/110
f 85/160/110 31/165/112 111/161/73
f 87/136/99 31/165/112 114/137/64
f 31/165/112 87/136/99 84/166/74
f 32/169/114 83/167/113 75/168/68
f 32/169/114 75/168/68 76/145/102
f 83/167/113 32/169/114 115/144/66
f 83/167/113 33/170/115 110/163/70
f 33/170/115 83/167/113 89/171/65
f 82/164/111 33/170/115 114/137/64
f 80/155/107 34/172/116 119/156/49
f 34/172/116 80/155/107 72/174/58
f 73/173/117 34/172/116 108/175/56
f 35/177/118 94/176/50 73/173/117
f 74/178/55 35/177/118 108/175/56
f 94/176/50 35/177/118 120/179/52
