# Blender v2.74 (sub 0) OBJ File: 'numbers.blend'
# www.blender.org
mtllib numbers_4.mtl
o Cube
v -0.469102 -0.355894 0.137386
v -0.400877 -0.355894 0.713669
v 0.378447 -0.255894 0.339503
v 1.133887 -0.155894 -0.078221
v -0.181183 -0.155894 -0.093169
v 1.277655 -0.255894 -0.126564
v -0.073377 -0.255894 -0.204801
v -1.424330 -0.255894 -0.094123
v -0.288989 -0.255894 0.018463
v 1.277655 -0.255894 -0.126564
v 0.504898 -0.355894 0.350496
v 0.251997 -0.355894 0.328509
v -0.430136 -0.455894 0.751226
v -0.343313 -0.455894 0.109062
v -0.470857 -0.455894 -0.420118
v -0.594890 -0.455894 0.165710
v -0.469102 -0.555894 0.137386
v -0.400877 -0.555894 0.713669
v 0.378447 -0.455894 0.339503
v 1.133887 -0.355895 -0.078221
v -0.181183 -0.355894 -0.093169
v -0.451168 -0.355894 0.560209
v 0.283609 -0.280894 0.331258
v -0.374760 -0.380894 0.116143
v -0.158182 -0.330894 0.610738
v -0.194009 -0.430894 0.428670
v -0.422821 -0.380894 0.741836
v -0.563443 -0.380894 0.158629
v -0.552423 -0.455894 0.604846
v -0.262037 -0.180894 -0.009444
v 0.769158 -0.155894 -0.088955
v 0.909105 -0.180894 0.057378
v 0.413928 -0.280894 0.095975
v -1.113543 -0.180894 -0.093884
v -1.140495 -0.255894 -0.009683
v -0.100328 -0.180894 -0.176893
v -1.086592 -0.255894 -0.178086
v -0.470418 -0.380894 -0.280742
v -0.375676 -0.455894 -0.287980
v 1.248901 -0.195894 -0.116895
v 1.007417 -0.255894 -0.172743
v 0.473285 -0.280894 0.347748
v 1.123135 -0.275894 -0.000619
v -0.115279 -0.430894 0.651044
v -0.565159 -0.455894 -0.273504
v -0.470418 -0.530894 -0.280742
v -0.563443 -0.530894 0.158629
v 0.473285 -0.430894 0.347748
v -0.422821 -0.530894 0.741837
v -0.158182 -0.530894 0.610738
v 1.248901 -0.315894 -0.116895
v 0.909105 -0.380894 0.057378
v -0.374760 -0.530894 0.116143
v -0.100328 -0.330894 -0.176893
v 0.769158 -0.355894 -0.088955
v -1.113543 -0.330894 -0.093884
v -0.262037 -0.330894 -0.009445
v 0.283609 -0.430894 0.331258
v -0.451168 -0.555894 0.560209
v -0.256751 -0.355894 0.517820
v -0.527110 -0.380894 0.593687
v 0.624977 -0.187894 0.048576
v -0.907755 -0.200339 -0.031469
v -0.835885 -0.200339 -0.155929
v -0.400016 -0.400339 -0.181849
v 0.934103 -0.183394 -0.160499
v 1.063352 -0.205894 0.025101
v -0.126005 -0.355894 0.640967
v -0.540137 -0.400339 -0.162827
v -0.540137 -0.511450 -0.162827
v -0.126005 -0.505894 0.640967
v 1.063352 -0.350894 0.025101
v -0.400016 -0.511450 -0.181849
v 0.934103 -0.328394 -0.160499
v -0.835885 -0.311450 -0.155929
v -0.907755 -0.311450 -0.031469
v 0.624977 -0.355894 0.048576
v -0.527110 -0.530894 0.593687
v -0.256751 -0.523894 0.517820
vt 0.174367 0.298861
vt 0.306537 0.304494
vt 0.265112 0.385026
vt 0.165513 0.338241
vt 0.000000 0.337920
vt 0.000098 0.298288
vt 0.000196 0.258656
vt 0.183221 0.259481
vt 0.320490 0.272795
vt 0.354506 0.320245
vt 0.322025 0.396250
vt 0.366246 0.311087
vt 0.334624 0.409684
vt 0.232883 0.524735
vt 0.236319 0.564324
vt 0.239756 0.603913
vt 0.138923 0.785441
vt 0.147210 0.730529
vt 0.159276 0.575502
vt 0.101162 0.686735
vt 0.104517 0.800924
vt 0.089405 0.845932
vt 0.071362 0.740173
vt 0.099845 0.389205
vt 0.134741 0.355459
vt 0.064950 0.422952
vt 0.064355 0.000000
vt 0.099548 0.000005
vt 0.134741 0.000010
vt 0.619547 0.728056
vt 0.595669 0.728056
vt 0.595669 0.696748
vt 0.595669 0.665440
vt 0.619547 0.665440
vt 0.643426 0.665440
vt 0.643426 0.696748
vt 0.643426 0.728056
vt 0.833797 0.417509
vt 0.802514 0.417509
vt 0.802514 0.000000
vt 0.833797 0.000000
vt 0.865080 0.000000
vt 0.865080 0.417509
vt 0.865080 0.835018
vt 0.833797 0.835018
vt 0.802514 0.835018
vt 0.658235 0.622395
vt 0.658235 0.587147
vt 0.689518 0.587147
vt 0.720801 0.587147
vt 0.720801 0.622395
vt 0.720801 0.657644
vt 0.689518 0.657644
vt 0.658235 0.657644
vt 0.968717 0.351019
vt 0.937434 0.351019
vt 0.937434 0.000000
vt 0.968717 0.000000
vt 1.000000 0.000000
vt 1.000000 0.351019
vt 1.000000 0.702039
vt 0.968717 0.702039
vt 0.937434 0.702039
vt 0.705991 0.688951
vt 0.705991 0.720259
vt 0.682113 0.720259
vt 0.658235 0.720259
vt 0.658235 0.688951
vt 0.682113 0.657644
vt 0.705991 0.657644
vt 0.932381 0.260530
vt 0.929854 0.468400
vt 0.898730 0.471557
vt 0.867607 0.474715
vt 0.870134 0.266845
vt 0.901257 0.263687
vt 0.875187 0.006315
vt 0.906311 0.003158
vt 0.366246 0.788711
vt 0.366246 0.587147
vt 0.397149 0.592010
vt 0.428053 0.596873
vt 0.428053 0.798436
vt 0.428053 1.000000
vt 0.397150 0.995137
vt 0.366246 0.990274
vt 0.901257 0.574109
vt 0.932381 0.570951
vt 0.937434 0.620843
vt 0.906311 0.624000
vt 0.875188 0.627158
vt 0.870134 0.577266
vt 0.490619 0.752920
vt 0.490619 0.587147
vt 0.521901 0.587147
vt 0.553184 0.587147
vt 0.553184 0.752920
vt 0.521901 0.752920
vt 0.553184 0.918694
vt 0.521901 0.918694
vt 0.490619 0.918694
vt 0.595669 0.626294
vt 0.595669 0.587147
vt 0.626952 0.587147
vt 0.658235 0.626294
vt 0.658235 0.665440
vt 0.626952 0.665440
vt 0.459336 0.770461
vt 0.428053 0.770461
vt 0.428053 0.587147
vt 0.459336 0.587147
vt 0.490619 0.770460
vt 0.490619 0.953774
vt 0.459336 0.953774
vt 0.428053 0.953774
vt 0.558095 0.039803
vt 0.566843 0.079203
vt 0.467379 0.125771
vt 0.426040 0.045131
vt 0.412178 0.013400
vt 0.549347 0.000403
vt 0.732196 0.000000
vt 0.732196 0.039632
vt 0.732196 0.079264
vt 0.378078 0.060771
vt 0.410494 0.136864
vt 0.397874 0.150268
vt 0.366372 0.051586
vt 0.499694 0.265595
vt 0.496163 0.305175
vt 0.597899 0.452047
vt 0.608458 0.519597
vt 0.619018 0.587147
vt 0.492632 0.344756
vt 0.595669 0.663008
vt 0.595669 0.738869
vt 0.574427 0.673882
vt 0.581508 0.644971
vt 0.553184 0.608895
vt 0.574427 0.598021
vt 0.767606 0.389258
vt 0.767856 0.778456
vt 0.733198 0.711012
vt 0.732697 0.355566
vt 0.732196 0.000120
vt 0.767355 0.000060
vt 0.802514 0.422950
vt 0.802514 0.845899
vt 0.619547 0.696748
vt 0.689518 0.622395
vt 0.682113 0.688951
vt 0.397150 0.793574
vt 0.626952 0.626294
vn -0.035900 0.997300 -0.063800
vn -0.157700 0.987100 0.028800
vn -0.009700 0.980900 -0.194400
vn 0.586000 0.786800 -0.193500
vn 0.632300 0.767400 -0.105800
vn -0.020400 0.944500 -0.327800
vn -0.642100 0.761100 -0.091500
vn -0.668200 0.743700 -0.019900
vn -0.690400 0.675900 0.257700
vn -0.094900 0.901700 0.421800
vn -0.005000 0.970700 0.240200
vn -0.295000 0.460600 0.837200
vn 0.280400 0.534700 0.797100
vn -0.462900 0.784100 -0.413300
vn -0.030100 0.956000 0.291900
vn 0.322200 0.552000 0.769100
vn 0.389900 0.528600 0.754000
vn 0.122100 0.899400 0.419600
vn -0.060600 0.971300 0.229700
vn -0.004400 0.997100 -0.076300
vn 0.271700 0.959700 0.072100
vn 0.332400 0.943100 0.013100
vn 0.026600 0.696800 -0.716700
vn -0.021500 0.999500 -0.020900
vn -0.054600 0.754400 0.654100
vn -0.012800 0.724000 -0.689700
vn -0.031200 0.731100 -0.681600
vn -0.175200 0.983900 -0.035400
vn -0.037500 0.743300 0.667800
vn 0.493400 0.004600 0.869800
vn 0.227100 0.775100 0.589600
vn -0.255100 0.942400 0.216200
vn 0.007100 0.707400 -0.706800
vn 0.029600 0.000000 -0.999500
vn -0.004300 0.000000 -1.000000
vn -0.012800 -0.724000 -0.689700
vn -0.031200 -0.731100 -0.681600
vn -0.171200 0.000000 -0.985200
vn -0.175200 -0.983900 -0.035400
vn -0.037500 -0.743300 0.667800
vn -0.220500 0.000000 0.975400
vn -0.071100 0.002600 0.997400
vn -0.068900 -0.757700 0.648900
vn -0.090900 -0.974300 -0.206000
vn -0.751800 0.077200 0.654800
vn 0.380000 -0.006200 0.924900
vn 0.373800 -0.566400 0.734500
vn 0.404500 -0.679300 0.612400
vn 0.464600 -0.009600 0.885400
vn -0.315500 -0.652000 -0.689400
vn 0.196600 -0.959200 -0.203200
vn 0.351600 0.020000 -0.935900
vn -0.321500 -0.005600 0.946900
vn -0.922100 0.000000 0.386900
vn -0.690400 -0.675900 0.257700
vn -0.271800 -0.465100 0.842500
vn 0.594200 -0.789100 -0.155400
vn 0.962600 -0.009700 -0.270900
vn 0.632300 -0.767400 -0.105800
vn 0.912200 0.000000 -0.409600
vn -0.020400 -0.944500 -0.327800
vn -0.642100 -0.761100 -0.091500
vn -0.929500 0.000000 -0.368800
vn -1.000000 0.000000 0.000600
vn -0.668200 -0.743700 -0.019900
vn -0.020600 -0.998600 -0.049000
vn -0.086700 -0.996100 0.015700
vn -0.005800 -0.906400 0.422300
vn 0.192300 -0.972900 0.128500
vn 0.036000 -0.990600 -0.132000
vn 0.628800 -0.453100 0.631900
vn 0.195000 -0.724800 -0.660800
vn -0.240600 0.964100 0.112000
vn -0.033100 -0.998700 -0.037400
vn 0.963800 0.008700 -0.266500
vn -0.999800 0.000000 -0.015700
vn -0.963800 -0.008700 0.266500
vn -0.489000 -0.007800 -0.872200
vn -0.019900 0.000000 -0.999800
usemtl Material
s 1
f 1/1/1 22/2/2 60/3/3
f 1/1/1 24/4/4 65/5/5
f 1/1/1 38/6/6 69/7/7
f 28/8/8 61/9/9 22/2/2
f 2/10/10 25/11/11 60/3/3
f 2/10/10 22/2/2 61/9/9
f 2/10/10 27/12/12 68/13/13
f 23/14/14 60/3/3 25/11/11
f 3/15/15 25/11/11 68/13/13
f 42/16/16 67/17/17 32/18/18
f 3/15/15 32/18/18 62/19/19
f 31/20/20 62/19/19 32/18/18
f 4/21/21 32/18/18 67/17/17
f 4/21/21 40/22/22 66/23/23
f 5/24/24 30/25/25 62/19/19
f 31/20/20 66/23/23 36/26/26
f 5/24/24 36/26/26 64/27/27
f 5/24/24 34/28/28 63/29/29
f 40/30/22 67/31/17 43/32/30
f 43/32/30 72/33/31 51/34/32
f 51/34/32 74/35/33 41/36/34
f 41/36/34 66/37/23 40/30/22
f 7/38/35 36/39/26 66/40/23
f 7/38/35 41/41/34 74/42/33
f 7/38/35 54/43/36 75/44/37
f 7/38/35 37/45/38 64/46/27
f 34/47/28 64/48/27 37/49/38
f 37/49/38 75/50/37 56/51/39
f 56/51/39 76/52/40 35/53/41
f 35/53/41 63/54/29 34/47/28
f 9/55/42 30/56/25 63/57/29
f 9/55/42 35/58/41 76/59/40
f 57/60/43 77/61/44 33/62/45
f 33/62/45 62/63/19 30/56/25
f 43/64/30 67/65/17 40/66/22
f 40/66/22 66/67/23 41/68/34
f 41/68/34 74/54/33 51/69/32
f 51/69/32 72/70/31 43/64/30
f 42/71/16 68/72/13 44/73/46
f 44/73/46 71/74/47 48/75/48
f 11/76/49 48/75/48 72/77/31
f 11/76/49 43/78/30 67/57/17
f 23/79/14 62/80/19 33/81/45
f 33/81/45 77/82/44 58/83/50
f 58/83/50 79/84/51 26/85/52
f 26/85/52 60/86/3 23/79/14
f 13/87/53 27/88/12 61/89/9
f 13/87/53 29/90/54 78/91/55
f 13/87/53 49/92/56 71/74/47
f 44/73/46 68/72/13 27/88/12
f 24/93/4 60/94/3 26/95/52
f 26/95/52 79/96/51 53/97/57
f 14/98/58 53/97/57 73/99/59
f 14/98/58 39/100/60 65/101/5
f 38/102/6 65/103/5 39/104/60
f 39/104/60 73/48/59 46/105/61
f 46/105/61 70/106/62 45/107/63
f 45/107/63 69/33/7 38/102/6
f 16/108/64 28/109/8 69/110/7
f 16/108/64 45/111/63 70/94/62
f 16/108/64 47/112/65 78/113/55
f 16/108/64 29/114/54 61/115/9
f 17/116/66 53/117/57 79/118/51
f 59/119/67 78/120/55 47/121/65
f 17/116/66 47/121/65 70/122/62
f 17/116/66 46/123/61 73/124/59
f 18/125/68 59/119/67 79/118/51
f 18/125/68 50/126/69 71/127/47
f 18/125/68 49/128/56 78/120/55
f 50/126/69 79/118/51 58/129/50
f 19/130/70 58/129/50 77/131/44
f 52/132/71 72/133/31 48/134/48
f 19/130/70 48/134/48 71/127/47
f 55/135/72 77/136/44 52/137/71
f 20/138/73 52/137/71 72/139/31
f 20/138/73 51/140/32 74/103/33
f 21/141/74 55/142/72 77/143/44
f 21/141/74 57/144/43 76/145/40
f 21/141/74 56/146/39 75/40/37
f 54/147/36 74/148/33 55/142/72
f 24/4/4 1/1/1 60/3/3
f 38/6/6 1/1/1 65/5/5
f 28/8/8 1/1/1 69/7/7
f 1/1/1 28/8/8 22/2/2
f 22/2/2 2/10/10 60/3/3
f 27/12/12 2/10/10 61/9/9
f 25/11/11 2/10/10 68/13/13
f 3/15/15 23/14/14 25/11/11
f 42/16/16 3/15/15 68/13/13
f 3/15/15 42/16/16 32/18/18
f 23/14/14 3/15/15 62/19/19
f 4/21/21 31/20/20 32/18/18
f 40/22/22 4/21/21 67/17/17
f 31/20/20 4/21/21 66/23/23
f 31/20/20 5/24/24 62/19/19
f 5/24/24 31/20/20 36/26/26
f 34/28/28 5/24/24 64/27/27
f 30/25/25 5/24/24 63/29/29
f 6/149/75 40/30/22 43/32/30
f 6/149/75 43/32/30 51/34/32
f 6/149/75 51/34/32 41/36/34
f 6/149/75 41/36/34 40/30/22
f 41/41/34 7/38/35 66/40/23
f 54/43/36 7/38/35 74/42/33
f 37/45/38 7/38/35 75/44/37
f 36/39/26 7/38/35 64/46/27
f 8/150/76 34/47/28 37/49/38
f 8/150/76 37/49/38 56/51/39
f 8/150/76 56/51/39 35/53/41
f 8/150/76 35/53/41 34/47/28
f 35/58/41 9/55/42 63/57/29
f 57/60/43 9/55/42 76/59/40
f 9/55/42 57/60/43 33/62/45
f 9/55/42 33/62/45 30/56/25
f 10/151/77 43/64/30 40/66/22
f 10/151/77 40/66/22 41/68/34
f 10/151/77 41/68/34 51/69/32
f 10/151/77 51/69/32 43/64/30
f 11/76/49 42/71/16 44/73/46
f 11/76/49 44/73/46 48/75/48
f 43/78/30 11/76/49 72/77/31
f 42/71/16 11/76/49 67/57/17
f 12/152/78 23/79/14 33/81/45
f 12/152/78 33/81/45 58/83/50
f 12/152/78 58/83/50 26/85/52
f 12/152/78 26/85/52 23/79/14
f 29/90/54 13/87/53 61/89/9
f 49/92/56 13/87/53 78/91/55
f 44/73/46 13/87/53 71/74/47
f 13/87/53 44/73/46 27/88/12
f 14/98/58 24/93/4 26/95/52
f 14/98/58 26/95/52 53/97/57
f 39/100/60 14/98/58 73/99/59
f 24/93/4 14/98/58 65/101/5
f 15/153/79 38/102/6 39/104/60
f 15/153/79 39/104/60 46/105/61
f 15/153/79 46/105/61 45/107/63
f 15/153/79 45/107/63 38/102/6
f 45/111/63 16/108/64 69/110/7
f 47/112/65 16/108/64 70/94/62
f 29/114/54 16/108/64 78/113/55
f 28/109/8 16/108/64 61/115/9
f 59/119/67 17/116/66 79/118/51
f 17/116/66 59/119/67 47/121/65
f 46/123/61 17/116/66 70/122/62
f 53/117/57 17/116/66 73/124/59
f 50/126/69 18/125/68 79/118/51
f 49/128/56 18/125/68 71/127/47
f 59/119/67 18/125/68 78/120/55
f 19/130/70 50/126/69 58/129/50
f 52/132/71 19/130/70 77/131/44
f 19/130/70 52/132/71 48/134/48
f 50/126/69 19/130/70 71/127/47
f 20/138/73 55/135/72 52/137/71
f 51/140/32 20/138/73 72/139/31
f 55/135/72 20/138/73 74/103/33
f 57/144/43 21/141/74 77/143/44
f 56/146/39 21/141/74 76/145/40
f 54/147/36 21/141/74 75/40/37
f 21/141/74 54/147/36 55/142/72
