# Blender v2.74 (sub 0) OBJ File: ''
# www.blender.org
mtllib tile_0.mtl
o Plane
v -0.989682 0.013725 1.002944
v 1.010318 0.013725 1.002944
v -0.989682 0.013725 -0.997056
v 1.010318 0.013725 -0.997056
v -0.989682 0.013725 0.002944
v 0.010318 0.013725 1.002944
v 1.010318 0.013725 0.002944
v 0.010318 0.013725 -0.997056
v 0.010318 0.013725 0.002944
v -0.989682 0.013725 0.502944
v 0.510318 0.013725 1.002944
v 1.010318 0.013725 -0.497056
v -0.489682 0.013725 -0.997056
v -0.989682 0.013725 -0.497056
v -0.489682 0.013725 1.002944
v 1.010318 0.013725 0.502944
v 0.510318 0.013725 -0.997056
v 0.010318 0.013725 -0.497056
v 0.010318 0.013725 0.502944
v -0.489682 0.013725 0.002944
v 0.510318 0.013725 0.002944
v 0.510318 0.013725 0.502944
v -0.489682 0.013725 0.502944
v -0.489682 0.013725 -0.497056
v 0.510318 0.013725 -0.497056
v -0.989682 0.013725 0.752944
v 0.760318 0.013725 1.002944
v 1.010318 0.013725 -0.747056
v -0.739682 0.013725 -0.997056
v -0.989682 0.013725 -0.247056
v -0.239682 0.013725 1.002944
v 1.010318 0.013725 0.252944
v 0.260318 0.013725 -0.997056
v 0.010318 0.013725 -0.747056
v 0.010318 0.013725 0.252944
v -0.739682 0.013725 0.002944
v 0.260318 0.013725 0.002944
v -0.989682 0.013725 0.252944
v 0.260318 0.013725 1.002944
v 1.010318 0.013725 -0.247056
v -0.239682 0.013725 -0.997056
v -0.989682 0.013725 -0.747056
v -0.739682 0.013725 1.002944
v 1.010318 0.013725 0.752944
v 0.760318 0.013725 -0.997056
v 0.010318 0.013725 -0.247056
v 0.010318 0.013725 0.752944
v -0.239682 0.013725 0.002944
v 0.760318 0.013725 0.002944
v 0.510318 0.013725 0.252944
v 0.510318 0.013725 0.752944
v 0.260318 0.013725 0.502944
v 0.760318 0.013725 0.502944
v -0.489682 0.013725 0.252944
v -0.489682 0.013725 0.752944
v -0.739682 0.013725 0.502944
v -0.239682 0.013725 0.502944
v -0.489682 0.013725 -0.747056
v -0.489682 0.013725 -0.247056
v -0.739682 0.013725 -0.497056
v -0.239682 0.013725 -0.497056
v 0.510318 0.013725 -0.747056
v 0.510318 0.013725 -0.247056
v 0.260318 0.013725 -0.497056
v 0.760318 0.013725 -0.497056
v 0.760318 0.013725 -0.247056
v 0.260318 0.013725 -0.247056
v 0.260318 0.013725 -0.747056
v -0.239682 0.013725 -0.247056
v -0.739682 0.013725 -0.247056
v -0.739682 0.013725 -0.747056
v -0.239682 0.013725 0.752944
v -0.739682 0.013725 0.752944
v -0.739682 0.013725 0.252944
v 0.760318 0.013725 0.752944
v 0.260318 0.013725 0.752944
v 0.260318 0.013725 0.252944
v 0.760318 0.013725 0.252944
v -0.239682 0.013725 0.252944
v -0.239682 0.013725 -0.747056
v 0.760318 0.013725 -0.747056
vt 1.000000 0.875000
vt 1.000000 1.000000
vt 0.875000 1.000000
vt 0.500000 0.875000
vt 0.500000 1.000000
vt 0.375000 1.000000
vt 0.500000 0.375000
vt 0.500000 0.500000
vt 0.375000 0.500000
vt 1.000000 0.375000
vt 1.000000 0.500000
vt 0.875000 0.500000
vt 0.750000 0.375000
vt 0.750000 0.500000
vt 0.625000 0.500000
vt 0.750000 0.125000
vt 0.750000 0.250000
vt 0.625000 0.250000
vt 1.000000 0.125000
vt 1.000000 0.250000
vt 0.875000 0.250000
vt 0.250000 0.375000
vt 0.250000 0.500000
vt 0.125000 0.500000
vt 0.250000 0.125000
vt 0.250000 0.250000
vt 0.125000 0.250000
vt 0.500000 0.125000
vt 0.500000 0.250000
vt 0.375000 0.250000
vt 0.250000 0.875000
vt 0.250000 1.000000
vt 0.125000 1.000000
vt 0.250000 0.625000
vt 0.250000 0.750000
vt 0.125000 0.750000
vt 0.500000 0.625000
vt 0.500000 0.750000
vt 0.375000 0.750000
vt 0.750000 0.875000
vt 0.750000 1.000000
vt 0.625000 1.000000
vt 0.750000 0.625000
vt 0.750000 0.750000
vt 0.625000 0.750000
vt 1.000000 0.625000
vt 1.000000 0.750000
vt 0.875000 0.750000
vt 0.875000 0.625000
vt 0.625000 0.625000
vt 0.625000 0.875000
vt 0.375000 0.625000
vt 0.125000 0.625000
vt 0.000000 0.750000
vt 0.000000 0.625000
vt 0.125000 0.875000
vt 0.000000 1.000000
vt 0.000000 0.875000
vt 0.375000 0.125000
vt 0.375000 0.000000
vt 0.500000 0.000000
vt 0.125000 0.125000
vt 0.000000 0.250000
vt 0.125000 0.000000
vt 0.000000 0.125000
vt 0.250000 0.000000
vt 0.125000 0.375000
vt 0.000000 0.500000
vt 0.000000 0.375000
vt 0.875000 0.125000
vt 0.875000 0.000000
vt 1.000000 0.000000
vt 0.625000 0.125000
vt 0.625000 0.000000
vt 0.750000 0.000000
vt 0.625000 0.375000
vt 0.875000 0.375000
vt 0.375000 0.375000
vt 0.375000 0.875000
vt 0.875000 0.875000
vt 0.000000 0.000000
vn 0.000000 1.000000 0.000000
usemtl Material.001
s off
f 28/1/1 4/2/1 45/3/1
f 34/4/1 8/5/1 41/6/1
f 35/7/1 9/8/1 48/9/1
f 32/10/1 7/11/1 49/12/1
f 50/13/1 21/14/1 37/15/1
f 51/16/1 22/17/1 52/18/1
f 44/19/1 16/20/1 53/21/1
f 54/22/1 20/23/1 36/24/1
f 55/25/1 23/26/1 56/27/1
f 47/28/1 19/29/1 57/30/1
f 58/31/1 13/32/1 29/33/1
f 59/34/1 24/35/1 60/36/1
f 46/37/1 18/38/1 61/39/1
f 62/40/1 17/41/1 33/42/1
f 63/43/1 25/44/1 64/45/1
f 40/46/1 12/47/1 65/48/1
f 66/49/1 65/48/1 25/44/1
f 49/12/1 66/49/1 63/43/1
f 7/11/1 40/46/1 66/49/1
f 67/50/1 64/45/1 18/38/1
f 37/15/1 67/50/1 46/37/1
f 21/14/1 63/43/1 67/50/1
f 68/51/1 33/42/1 8/5/1
f 64/45/1 68/51/1 34/4/1
f 25/44/1 62/40/1 68/51/1
f 69/52/1 61/39/1 24/35/1
f 48/9/1 69/52/1 59/34/1
f 9/8/1 46/37/1 69/52/1
f 70/53/1 60/36/1 14/54/1
f 36/24/1 70/53/1 30/55/1
f 20/23/1 59/34/1 70/53/1
f 71/56/1 29/33/1 3/57/1
f 60/36/1 71/56/1 42/58/1
f 24/35/1 58/31/1 71/56/1
f 72/59/1 57/30/1 23/26/1
f 31/60/1 72/59/1 55/25/1
f 6/61/1 47/28/1 72/59/1
f 73/62/1 56/27/1 10/63/1
f 43/64/1 73/62/1 26/65/1
f 15/66/1 55/25/1 73/62/1
f 74/67/1 36/24/1 5/68/1
f 56/27/1 74/67/1 38/69/1
f 23/26/1 54/22/1 74/67/1
f 75/70/1 53/21/1 22/17/1
f 27/71/1 75/70/1 51/16/1
f 2/72/1 44/19/1 75/70/1
f 76/73/1 52/18/1 19/29/1
f 39/74/1 76/73/1 47/28/1
f 11/75/1 51/16/1 76/73/1
f 77/76/1 37/15/1 9/8/1
f 52/18/1 77/76/1 35/7/1
f 22/17/1 50/13/1 77/76/1
f 78/77/1 49/12/1 21/14/1
f 53/21/1 78/77/1 50/13/1
f 16/20/1 32/10/1 78/77/1
f 79/78/1 48/9/1 20/23/1
f 57/30/1 79/78/1 54/22/1
f 19/29/1 35/7/1 79/78/1
f 80/79/1 41/6/1 13/32/1
f 61/39/1 80/79/1 58/31/1
f 18/38/1 34/4/1 80/79/1
f 81/80/1 45/3/1 17/41/1
f 65/48/1 81/80/1 62/40/1
f 12/47/1 28/1/1 81/80/1
f 81/80/1 28/1/1 45/3/1
f 80/79/1 34/4/1 41/6/1
f 79/78/1 35/7/1 48/9/1
f 78/77/1 32/10/1 49/12/1
f 77/76/1 50/13/1 37/15/1
f 76/73/1 51/16/1 52/18/1
f 75/70/1 44/19/1 53/21/1
f 74/67/1 54/22/1 36/24/1
f 73/62/1 55/25/1 56/27/1
f 72/59/1 47/28/1 57/30/1
f 71/56/1 58/31/1 29/33/1
f 70/53/1 59/34/1 60/36/1
f 69/52/1 46/37/1 61/39/1
f 68/51/1 62/40/1 33/42/1
f 67/50/1 63/43/1 64/45/1
f 66/49/1 40/46/1 65/48/1
f 63/43/1 66/49/1 25/44/1
f 21/14/1 49/12/1 63/43/1
f 49/12/1 7/11/1 66/49/1
f 46/37/1 67/50/1 18/38/1
f 9/8/1 37/15/1 46/37/1
f 37/15/1 21/14/1 67/50/1
f 34/4/1 68/51/1 8/5/1
f 18/38/1 64/45/1 34/4/1
f 64/45/1 25/44/1 68/51/1
f 59/34/1 69/52/1 24/35/1
f 20/23/1 48/9/1 59/34/1
f 48/9/1 9/8/1 69/52/1
f 30/55/1 70/53/1 14/54/1
f 5/68/1 36/24/1 30/55/1
f 36/24/1 20/23/1 70/53/1
f 42/58/1 71/56/1 3/57/1
f 14/54/1 60/36/1 42/58/1
f 60/36/1 24/35/1 71/56/1
f 55/25/1 72/59/1 23/26/1
f 15/66/1 31/60/1 55/25/1
f 31/60/1 6/61/1 72/59/1
f 26/65/1 73/62/1 10/63/1
f 1/81/1 43/64/1 26/65/1
f 43/64/1 15/66/1 73/62/1
f 38/69/1 74/67/1 5/68/1
f 10/63/1 56/27/1 38/69/1
f 56/27/1 23/26/1 74/67/1
f 51/16/1 75/70/1 22/17/1
f 11/75/1 27/71/1 51/16/1
f 27/71/1 2/72/1 75/70/1
f 47/28/1 76/73/1 19/29/1
f 6/61/1 39/74/1 47/28/1
f 39/74/1 11/75/1 76/73/1
f 35/7/1 77/76/1 9/8/1
f 19/29/1 52/18/1 35/7/1
f 52/18/1 22/17/1 77/76/1
f 50/13/1 78/77/1 21/14/1
f 22/17/1 53/21/1 50/13/1
f 53/21/1 16/20/1 78/77/1
f 54/22/1 79/78/1 20/23/1
f 23/26/1 57/30/1 54/22/1
f 57/30/1 19/29/1 79/78/1
f 58/31/1 80/79/1 13/32/1
f 24/35/1 61/39/1 58/31/1
f 61/39/1 18/38/1 80/79/1
f 62/40/1 81/80/1 17/41/1
f 25/44/1 65/48/1 62/40/1
f 65/48/1 12/47/1 81/80/1
