# Blender v2.74 (sub 0) OBJ File: ''
# www.blender.org
mtllib tile_1.mtl
o Plane
v -0.989682 0.013725 1.002944
v 1.010318 0.013725 1.002944
v -0.989682 0.013725 -0.997056
v 1.010318 0.013725 -0.997056
v -0.989682 0.013725 0.002944
v 0.010318 0.013725 1.002944
v 1.010318 0.013725 0.002944
v 0.010318 0.013725 -0.997056
v 0.010318 0.013725 0.002944
v -0.989682 0.013725 0.502944
v 0.510318 0.013725 1.002944
v 1.010318 0.013725 -0.497056
v -0.489682 0.013725 -0.997056
v -0.989682 0.013725 -0.497056
v -0.489682 0.013725 1.002944
v 1.010318 0.013725 0.502944
v 0.510318 0.013725 -0.997056
v 0.010318 0.118089 -0.497056
v 0.010318 -0.102421 0.502944
v -0.489682 0.013725 0.002944
v 0.510318 0.013725 0.002944
v 0.510318 0.013725 0.502944
v -0.489682 0.013725 0.502944
v -0.489682 0.013725 -0.497056
v 0.510318 0.013725 -0.497056
v -0.989682 0.013725 0.752944
v 0.760318 0.013725 1.002944
v 1.010318 0.013725 -0.747056
v -0.739682 0.013725 -0.997056
v -0.989682 0.013725 -0.247056
v -0.239682 0.013725 1.002944
v 1.010318 0.013725 0.252944
v 0.260318 0.013725 -0.997056
v 0.010318 0.013725 -0.747056
v 0.010318 -0.048527 0.252944
v -0.739682 0.013725 0.002944
v 0.260318 0.013725 0.002944
v -0.989682 0.013725 0.252944
v 0.260318 0.013725 1.002944
v 1.010318 0.013725 -0.247056
v -0.239682 0.013725 -0.997056
v -0.989682 0.013725 -0.747056
v -0.739682 0.013725 1.002944
v 1.010318 0.013725 0.752944
v 0.760318 0.013725 -0.997056
v 0.010318 0.129495 -0.247056
v 0.010318 -0.050491 0.752944
v -0.239682 0.013725 0.002944
v 0.760318 0.013725 0.002944
v 0.510318 0.107326 0.252944
v 0.510318 0.013725 0.752944
v 0.260318 0.013725 0.502944
v 0.760318 0.013725 0.502944
v -0.489682 0.104791 0.252944
v -0.489682 0.013725 0.752944
v -0.739682 0.013725 0.502944
v -0.239682 0.013725 0.502944
v -0.489682 0.105486 -0.747056
v -0.489682 -0.063247 -0.247056
v -0.739682 0.013725 -0.497056
v -0.239682 0.013725 -0.497056
v 0.510318 0.013725 -0.747056
v 0.510318 -0.100365 -0.247056
v 0.260318 0.013725 -0.497056
v 0.760318 0.013725 -0.497056
v 0.760318 0.013725 -0.247056
v 0.260318 0.013725 -0.247056
v 0.260318 0.086088 -0.747056
v -0.239682 0.013725 -0.247056
v -0.739682 0.013725 -0.247056
v -0.739682 0.013725 -0.747056
v -0.239682 0.013725 0.752944
v -0.739682 -0.061320 0.752944
v -0.739682 0.013725 0.252944
v 0.760318 0.061998 0.752944
v 0.260318 0.013725 0.752944
v 0.260318 0.013725 0.252944
v 0.760318 0.013725 0.252944
v -0.239682 0.013725 0.252944
v -0.239682 0.013725 -0.747056
v 0.760318 0.111611 -0.747056
vt 0.000000 0.124885
vt 0.000000 0.000000
vt 0.125000 0.000115
vt 0.500000 0.125344
vt 0.500000 0.000458
vt 0.625000 0.000573
vt 0.625000 0.625000
vt 0.502597 0.624544
vt 0.500000 0.500000
vt 0.000000 0.624427
vt 0.000000 0.499542
vt 0.125000 0.499656
vt 0.375000 0.624771
vt 0.246096 0.625170
vt 0.250000 0.499771
vt 0.250000 0.874428
vt 0.250000 0.749542
vt 0.375000 0.749656
vt 0.000000 0.874198
vt 0.000000 0.749313
vt 0.125000 0.749427
vt 0.875000 0.625229
vt 0.746201 0.625615
vt 0.750000 0.500229
vt 0.750000 0.874886
vt 0.750000 0.750000
vt 0.875000 0.750115
vt 0.502678 0.874304
vt 0.504845 0.749133
vt 0.625000 0.749886
vt 0.875000 0.125687
vt 0.746172 0.126076
vt 0.750000 0.000687
vt 0.875000 0.375458
vt 0.753211 0.374921
vt 0.750000 0.250458
vt 0.625000 0.375229
vt 0.495171 0.375750
vt 0.495647 0.250802
vt 0.250000 0.125115
vt 0.250000 0.000229
vt 0.375000 0.000344
vt 0.375000 0.375000
vt 0.254759 0.374259
vt 0.250000 0.250000
vt 0.000000 0.374657
vt 0.000000 0.249771
vt 0.125000 0.249886
vt 0.125000 0.374771
vt 0.375000 0.250115
vt 0.375000 0.499886
vt 0.371982 0.125626
vt 0.625000 0.250344
vt 0.625000 0.500115
vt 0.875000 0.250573
vt 1.000000 0.250687
vt 0.875000 0.500344
vt 1.000000 0.375573
vt 0.875000 0.000802
vt 1.000000 0.000916
vt 1.000000 0.125802
vt 0.625000 0.874771
vt 0.625000 0.999657
vt 0.500000 0.999542
vt 1.000000 0.875115
vt 0.878130 0.874588
vt 0.875000 0.999886
vt 0.750000 0.999771
vt 1.000000 0.500458
vt 1.000000 0.625344
vt 0.122986 0.874578
vt 0.125000 0.999199
vt 0.000000 0.999084
vt 0.375000 0.874542
vt 0.375000 0.999428
vt 0.250000 0.999313
vt 0.125000 0.624542
vt 0.625000 0.125458
vt 0.120917 0.125537
vt 1.000000 0.750229
vt 1.000000 1.000000
vn 0.000000 1.000000 0.000000
vn 0.234900 0.943200 0.234900
vn -0.330900 0.883800 -0.330900
vn -0.323800 0.889000 -0.323800
vn 0.414000 0.891200 -0.185100
vn -0.325800 0.887500 -0.325800
vn 0.282300 0.916900 0.282300
vn -0.419900 0.906600 -0.041400
vn 0.383400 0.840200 0.383400
vn 0.385200 0.922800 0.000000
vn 0.383400 0.840200 -0.383400
vn -0.267900 0.925500 -0.267900
vn -0.267900 0.925500 0.267900
vn -0.387400 0.836600 0.387400
vn 0.282300 0.916900 -0.282300
vn -0.325800 0.887500 0.325800
vn 0.241400 0.939900 -0.241400
vn 0.276300 0.920500 0.276300
vn 0.276300 0.920500 -0.276300
vn -0.323800 0.889000 0.323800
vn -0.186300 0.964700 -0.186300
vn -0.186300 0.964700 0.186300
vn -0.248800 0.968600 0.000000
vn -0.241600 0.970400 0.000000
vn -0.330900 0.883800 0.330900
vn 0.413500 0.890100 0.191900
vn -0.359500 0.861100 -0.359500
vn -0.342500 0.874800 -0.342500
vn -0.342500 0.874800 0.342500
vn 0.342500 0.874800 -0.342500
vn 0.186300 0.964700 -0.186300
vn -0.276300 0.920500 0.276300
vn 0.248800 0.968600 0.000000
vn -0.385200 0.922800 0.000000
vn 0.267900 0.925500 -0.267900
vn -0.383400 0.840200 0.383400
vn -0.383400 0.840200 -0.383400
vn 0.419900 0.906600 -0.041400
vn 0.387400 0.836600 0.387400
vn 0.359500 0.861100 -0.359500
vn 0.267900 0.925500 0.267900
vn -0.282300 0.916900 0.282300
vn -0.282300 0.916900 -0.282300
vn -0.276300 0.920500 -0.276300
vn 0.186300 0.964700 0.186300
vn -0.414000 0.891200 -0.185100
vn -0.241400 0.939900 -0.241400
vn -0.234900 0.943200 0.234900
vn -0.413500 0.890100 0.191900
vn 0.330900 0.883800 -0.330900
vn 0.330900 0.883800 0.330900
vn 0.323800 0.889000 -0.323800
vn 0.323800 0.889000 0.323800
vn 0.241600 0.970400 0.000000
vn 0.325800 0.887500 -0.325800
vn 0.325800 0.887500 0.325800
vn 0.342500 0.874800 0.342500
usemtl Material.001
s off
f 28/1/1 4/2/1 45/3/1
f 34/4/1 8/5/1 41/6/1
f 79/7/2 35/8/2 9/9/2
f 32/10/1 7/11/1 49/12/1
f 77/13/3 50/14/3 21/15/3
f 51/16/1 22/17/1 52/18/1
f 44/19/1 16/20/1 53/21/1
f 74/22/4 54/23/4 20/24/4
f 55/25/1 23/26/1 56/27/1
f 47/28/5 19/29/5 57/30/5
f 71/31/6 58/32/6 13/33/6
f 70/34/7 59/35/7 24/36/7
f 69/37/8 46/38/8 18/39/8
f 62/40/1 17/41/1 33/42/1
f 67/43/9 63/44/9 25/45/9
f 40/46/1 12/47/1 65/48/1
f 66/49/1 65/48/1 25/45/1
f 21/15/1 49/12/1 66/49/1
f 7/11/1 40/46/1 66/49/1
f 67/43/10 64/50/10 18/39/10
f 9/9/1 37/51/1 67/43/1
f 21/15/11 63/44/11 67/43/11
f 34/4/12 68/52/12 33/42/12
f 64/50/13 68/52/13 34/4/13
f 64/50/1 25/45/1 62/40/1
f 69/37/1 61/53/1 24/36/1
f 20/24/1 48/54/1 69/37/1
f 9/9/14 46/38/14 69/37/14
f 70/34/1 60/55/1 14/56/1
f 36/57/1 70/34/1 30/58/1
f 20/24/15 59/35/15 70/34/15
f 71/31/1 29/59/1 3/60/1
f 60/55/1 71/31/1 42/61/1
f 24/36/16 58/32/16 71/31/16
f 72/62/1 57/30/1 23/26/1
f 31/63/1 72/62/1 55/25/1
f 6/64/17 47/28/17 72/62/17
f 26/65/18 73/66/18 56/27/18
f 43/67/19 73/66/19 26/65/19
f 43/67/1 15/68/1 55/25/1
f 74/22/1 36/57/1 5/69/1
f 56/27/1 74/22/1 38/70/1
f 23/26/20 54/23/20 74/22/20
f 51/16/21 75/71/21 53/21/21
f 27/72/22 75/71/22 51/16/22
f 27/72/1 2/73/1 44/19/1
f 47/28/23 76/74/23 52/18/23
f 6/64/1 39/75/1 76/74/1
f 11/76/1 51/16/1 76/74/1
f 77/13/1 37/51/1 9/9/1
f 52/18/24 77/13/24 35/8/24
f 22/17/25 50/14/25 77/13/25
f 78/77/1 49/12/1 21/15/1
f 22/17/1 53/21/1 78/77/1
f 16/20/1 32/10/1 78/77/1
f 79/7/1 48/54/1 20/24/1
f 23/26/1 57/30/1 79/7/1
f 57/30/26 19/29/26 35/8/26
f 80/78/1 41/6/1 13/33/1
f 24/36/1 61/53/1 80/78/1
f 61/53/27 18/39/27 34/4/27
f 62/40/28 81/79/28 45/3/28
f 65/48/29 81/79/29 62/40/29
f 65/48/1 12/47/1 28/1/1
f 81/79/30 28/1/30 45/3/30
f 80/78/1 34/4/1 41/6/1
f 48/54/1 79/7/1 9/9/1
f 78/77/1 32/10/1 49/12/1
f 37/51/1 77/13/1 21/15/1
f 76/74/1 51/16/1 52/18/1
f 75/71/31 44/19/31 53/21/31
f 36/57/1 74/22/1 20/24/1
f 73/66/32 55/25/32 56/27/32
f 72/62/33 47/28/33 57/30/33
f 29/59/1 71/31/1 13/33/1
f 60/55/1 70/34/1 24/36/1
f 61/53/34 69/37/34 18/39/34
f 68/52/35 62/40/35 33/42/35
f 64/50/1 67/43/1 25/45/1
f 66/49/1 40/46/1 65/48/1
f 63/44/36 66/49/36 25/45/36
f 63/44/37 21/15/37 66/49/37
f 49/12/1 7/11/1 66/49/1
f 46/38/38 67/43/38 18/39/38
f 46/38/39 9/9/39 67/43/39
f 37/51/1 21/15/1 67/43/1
f 8/5/1 34/4/1 33/42/1
f 18/39/40 64/50/40 34/4/40
f 68/52/41 64/50/41 62/40/41
f 59/35/42 69/37/42 24/36/42
f 59/35/43 20/24/43 69/37/43
f 48/54/1 9/9/1 69/37/1
f 30/58/1 70/34/1 14/56/1
f 5/69/1 36/57/1 30/58/1
f 36/57/1 20/24/1 70/34/1
f 42/61/1 71/31/1 3/60/1
f 14/56/1 60/55/1 42/61/1
f 60/55/1 24/36/1 71/31/1
f 55/25/1 72/62/1 23/26/1
f 15/68/1 31/63/1 55/25/1
f 31/63/1 6/64/1 72/62/1
f 10/80/1 26/65/1 56/27/1
f 1/81/1 43/67/1 26/65/1
f 73/66/44 43/67/44 55/25/44
f 38/70/1 74/22/1 5/69/1
f 10/80/1 56/27/1 38/70/1
f 56/27/1 23/26/1 74/22/1
f 22/17/1 51/16/1 53/21/1
f 11/76/1 27/72/1 51/16/1
f 75/71/45 27/72/45 44/19/45
f 19/29/46 47/28/46 52/18/46
f 47/28/47 6/64/47 76/74/47
f 39/75/1 11/76/1 76/74/1
f 35/8/48 77/13/48 9/9/48
f 19/29/49 52/18/49 35/8/49
f 52/18/1 22/17/1 77/13/1
f 50/14/50 78/77/50 21/15/50
f 50/14/51 22/17/51 78/77/51
f 53/21/1 16/20/1 78/77/1
f 54/23/52 79/7/52 20/24/52
f 54/23/53 23/26/53 79/7/53
f 79/7/54 57/30/54 35/8/54
f 58/32/55 80/78/55 13/33/55
f 58/32/56 24/36/56 80/78/56
f 80/78/1 61/53/1 34/4/1
f 17/41/1 62/40/1 45/3/1
f 25/45/1 65/48/1 62/40/1
f 81/79/57 65/48/57 28/1/57
